<?xml version="1.0" encoding="iso-8859-1"?>
<!-- Generator: Adobe Illustrator 19.0.0, SVG Export Plug-In . SVG Version: 6.00 Build 0)  -->
<svg version="1.1" id="Layer_1" xmlns="http://www.w3.org/2000/svg" xmlns:xlink="http://www.w3.org/1999/xlink" x="0px" y="0px"
	 viewBox="0 0 487.988 487.988" style="enable-background:new 0 0 487.988 487.988;" xml:space="preserve">
<g transform="translate(0 -540.36)">
	<g>
		<g>
			<path d="M328.788,820.648h-74.2c-5.5,0-10,4.5-10,10s4.5,10,10,10h74.2c5.5,0,10-4.5,10-10S334.288,820.648,328.788,820.648z"/>
			<path d="M477.988,738.848h-380.3l-83-44.6c-4.8-2.6-10.9-0.8-13.5,4.1c-2.6,4.8-0.8,10.9,4.1,13.5l85.2,45.8
				c1.4,0.8,3,1.2,4.7,1.2h382.8c5.5,0,10-4.5,10-10S483.488,738.848,477.988,738.848z"/>
			<path d="M180.488,785.648c-25.1,0-45.5,20.4-45.5,45.5c0,24.9,20,44.5,45.5,44.5c24.6,0,44.6-19.9,44.5-44.5
				C224.988,806.048,205.088,785.648,180.488,785.648z M180.488,855.648c-14.3,0-25.5-10.7-25.5-24.5c0-14.1,11.5-25.5,25.5-25.5
				c13.3,0,24.6,11.7,24.5,25.5C204.988,844.648,193.988,855.648,180.488,855.648z"/>
			<path d="M403.788,785.648c-24.9,0-44.5,20-44.5,45.5c0,24.9,19.5,44.5,44.5,44.5c25.5,0,45.5-19.5,45.5-44.5
				C449.288,806.048,428.888,785.648,403.788,785.648z M403.788,855.648c-14,0-24.5-10.5-24.5-24.5c0-14.3,10.7-25.5,24.5-25.5
				c14,0,25.5,11.5,25.5,25.5C429.288,844.848,418.088,855.648,403.788,855.648z"/>
		</g>
	</g>
</g>
<g>
</g>
<g>
</g>
<g>
</g>
<g>
</g>
<g>
</g>
<g>
</g>
<g>
</g>
<g>
</g>
<g>
</g>
<g>
</g>
<g>
</g>
<g>
</g>
<g>
</g>
<g>
</g>
<g>
</g>
</svg>
